<svg width="322" height="84" viewBox="0 0 322 84" fill="none" xmlns="http://www.w3.org/2000/svg">
<path d="M128.695 66.0383H103.416V62.0725L117.524 27.2278H104.627V18.4787H128.604V23.2619L114.86 57.259H128.695V66.0383ZM153.4 66.0383H130.483V18.4787H153.219V27.258H139.262V37.8537H151.281V46.6633H139.262V57.259H153.4V66.0383ZM181.436 27.258H172.717V66.0383H163.907V27.258H155.189V18.4787H181.436V27.258ZM209.471 27.258H200.753V66.0383H191.943V27.258H183.224V18.4787H209.471V27.258ZM225.307 66.0383L223.188 55.4426H213.985L211.865 66.0383H202.904L212.41 18.4787H224.762L234.268 66.0383H225.307ZM221.432 46.6633L218.586 32.4348L215.74 46.6633H221.432Z" fill="black"/>
<path d="M250.137 53.9398V55.0383H249.039V53.9398H250.137ZM250.137 52.8414V53.9398H249.039V52.8414H250.137ZM250.137 51.7429V52.8414H249.039V51.7429H250.137ZM250.137 50.6444V51.7429H249.039V50.6444H250.137ZM250.137 49.5459V50.6444H249.039V49.5459H250.137ZM250.137 48.4474V49.5459H249.039V48.4474H250.137ZM250.137 47.3489V48.4474H249.039V47.3489H250.137ZM250.137 46.2505V47.3489H249.039V46.2505H250.137ZM250.137 45.152V46.2505H249.039V45.152H250.137ZM250.137 44.0535V45.152H249.039V44.0535H250.137ZM250.137 42.955V44.0535H249.039V42.955H250.137ZM250.137 41.8565V42.955H249.039V41.8565H250.137ZM250.137 40.7581V41.8565H249.039V40.7581H250.137ZM250.137 39.6596V40.7581H249.039V39.6596H250.137ZM250.137 38.5611V39.6596H249.039V38.5611H250.137ZM251.236 38.5611V39.6596H250.137V38.5611H251.236ZM251.236 39.6596V40.7581H250.137V39.6596H251.236ZM251.236 40.7581V41.8565H250.137V40.7581H251.236ZM251.236 41.8565V42.955H250.137V41.8565H251.236ZM251.236 42.955V44.0535H250.137V42.955H251.236ZM251.236 44.0535V45.152H250.137V44.0535H251.236ZM251.236 45.152V46.2505H250.137V45.152H251.236ZM252.334 46.2505V47.3489H251.236V46.2505H252.334ZM252.334 47.3489V48.4474H251.236V47.3489H252.334ZM252.334 48.4474V49.5459H251.236V48.4474H252.334ZM252.334 49.5459V50.6444H251.236V49.5459H252.334ZM252.334 50.6444V51.7429H251.236V50.6444H252.334ZM252.334 51.7429V52.8414H251.236V51.7429H252.334ZM252.334 52.8414V53.9398H251.236V52.8414H252.334ZM252.334 53.9398V55.0383H251.236V53.9398H252.334ZM253.433 53.9398V55.0383H252.334V53.9398H253.433ZM254.531 53.9398V55.0383H253.433V53.9398H254.531ZM254.531 52.8414V53.9398H253.433V52.8414H254.531ZM254.531 51.7429V52.8414H253.433V51.7429H254.531ZM254.531 50.6444V51.7429H253.433V50.6444H254.531ZM254.531 49.5459V50.6444H253.433V49.5459H254.531ZM254.531 48.4474V49.5459H253.433V48.4474H254.531ZM254.531 47.3489V48.4474H253.433V47.3489H254.531ZM254.531 46.2505V47.3489H253.433V46.2505H254.531ZM253.433 46.2505V47.3489H252.334V46.2505H253.433ZM253.433 45.152V46.2505H252.334V45.152H253.433ZM253.433 47.3489V48.4474H252.334V47.3489H253.433ZM253.433 48.4474V49.5459H252.334V48.4474H253.433ZM253.433 49.5459V50.6444H252.334V49.5459H253.433ZM253.433 50.6444V51.7429H252.334V50.6444H253.433ZM253.433 51.7429V52.8414H252.334V51.7429H253.433ZM253.433 52.8414V53.9398H252.334V52.8414H253.433ZM251.236 53.9398V55.0383H250.137V53.9398H251.236ZM251.236 52.8414V53.9398H250.137V52.8414H251.236ZM251.236 51.7429V52.8414H250.137V51.7429H251.236ZM251.236 50.6444V51.7429H250.137V50.6444H251.236ZM251.236 49.5459V50.6444H250.137V49.5459H251.236ZM251.236 48.4474V49.5459H250.137V48.4474H251.236ZM251.236 47.3489V48.4474H250.137V47.3489H251.236ZM251.236 46.2505V47.3489H250.137V46.2505H251.236ZM250.137 27.5763V28.6748H249.039V27.5763H250.137ZM250.137 28.6748V29.7732H249.039V28.6748H250.137ZM250.137 29.7732V30.8717H249.039V29.7732H250.137ZM250.137 30.8717V31.9702H249.039V30.8717H250.137ZM250.137 31.9702V33.0687H249.039V31.9702H250.137ZM250.137 33.0687V34.1672H249.039V33.0687H250.137ZM250.137 34.1672V35.2657H249.039V34.1672H250.137ZM250.137 35.2657V36.3641H249.039V35.2657H250.137ZM250.137 36.3641V37.4626H249.039V36.3641H250.137ZM250.137 37.4626V38.5611H249.039V37.4626H250.137ZM253.433 27.5763V28.6748H252.334V27.5763H253.433ZM253.433 28.6748V29.7732H252.334V28.6748H253.433ZM253.433 29.7732V30.8717H252.334V29.7732H253.433ZM253.433 30.8717V31.9702H252.334V30.8717H253.433ZM253.433 31.9702V33.0687H252.334V31.9702H253.433ZM253.433 33.0687V34.1672H252.334V33.0687H253.433ZM253.433 35.2657V36.3641H252.334V35.2657H253.433ZM253.433 36.3641V37.4626H252.334V36.3641H253.433ZM253.433 37.4626V38.5611H252.334V37.4626H253.433ZM253.433 38.5611V39.6596H252.334V38.5611H253.433ZM253.433 39.6596V40.7581H252.334V39.6596H253.433ZM253.433 40.7581V41.8565H252.334V40.7581H253.433ZM253.433 41.8565V42.955H252.334V41.8565H253.433ZM254.531 42.955V44.0535H253.433V42.955H254.531ZM254.531 44.0535V45.152H253.433V44.0535H254.531ZM254.531 45.152V46.2505H253.433V45.152H254.531ZM254.531 41.8565V42.955H253.433V41.8565H254.531ZM254.531 40.7581V41.8565H253.433V40.7581H254.531ZM254.531 39.6596V40.7581H253.433V39.6596H254.531ZM254.531 38.5611V39.6596H253.433V38.5611H254.531ZM254.531 37.4626V38.5611H253.433V37.4626H254.531ZM254.531 36.3641V37.4626H253.433V36.3641H254.531ZM254.531 35.2657V36.3641H253.433V35.2657H254.531ZM254.531 34.1672V35.2657H253.433V34.1672H254.531ZM254.531 33.0687V34.1672H253.433V33.0687H254.531ZM254.531 31.9702V33.0687H253.433V31.9702H254.531ZM253.433 34.1672V35.2657H252.334V34.1672H253.433ZM254.531 30.8717V31.9702H253.433V30.8717H254.531ZM254.531 29.7732V30.8717H253.433V29.7732H254.531ZM254.531 28.6748V29.7732H253.433V28.6748H254.531ZM254.531 27.5763V28.6748H253.433V27.5763H254.531ZM252.334 27.5763V28.6748H251.236V27.5763H252.334ZM251.236 27.5763V28.6748H250.137V27.5763H251.236ZM251.236 28.6748V29.7732H250.137V28.6748H251.236ZM252.334 28.6748V29.7732H251.236V28.6748H252.334ZM252.334 29.7732V30.8717H251.236V29.7732H252.334ZM252.334 30.8717V31.9702H251.236V30.8717H252.334ZM252.334 31.9702V33.0687H251.236V31.9702H252.334ZM252.334 33.0687V34.1672H251.236V33.0687H252.334ZM252.334 34.1672V35.2657H251.236V34.1672H252.334ZM252.334 35.2657V36.3641H251.236V35.2657H252.334ZM251.236 36.3641V37.4626H250.137V36.3641H251.236ZM251.236 37.4626V38.5611H250.137V37.4626H251.236ZM251.236 35.2657V36.3641H250.137V35.2657H251.236ZM251.236 34.1672V35.2657H250.137V34.1672H251.236ZM251.236 33.0687V34.1672H250.137V33.0687H251.236ZM251.236 31.9702V33.0687H250.137V31.9702H251.236ZM251.236 30.8717V31.9702H250.137V30.8717H251.236ZM251.236 29.7732V30.8717H250.137V29.7732H251.236ZM252.334 36.3641V37.4626H251.236V36.3641H252.334ZM252.334 37.4626V38.5611H251.236V37.4626H252.334ZM252.334 38.5611V39.6596H251.236V38.5611H252.334ZM252.334 39.6596V40.7581H251.236V39.6596H252.334ZM252.334 40.7581V41.8565H251.236V40.7581H252.334ZM252.334 41.8565V42.955H251.236V41.8565H252.334ZM252.334 42.955V44.0535H251.236V42.955H252.334ZM252.334 44.0535V45.152H251.236V44.0535H252.334ZM252.334 45.152V46.2505H251.236V45.152H252.334ZM253.433 44.0535V45.152H252.334V44.0535H253.433ZM253.433 42.955V44.0535H252.334V42.955H253.433ZM255.63 40.7581V41.8565H254.531V40.7581H255.63ZM256.728 40.7581V41.8565H255.63V40.7581H256.728ZM256.728 41.8565V42.955H255.63V41.8565H256.728ZM255.63 41.8565V42.955H254.531V41.8565H255.63ZM255.63 38.5611V39.6596H254.531V38.5611H255.63ZM256.728 38.5611V39.6596H255.63V38.5611H256.728ZM255.63 42.955V44.0535H254.531V42.955H255.63ZM256.728 42.955V44.0535H255.63V42.955H256.728ZM256.728 39.6596V40.7581H255.63V39.6596H256.728ZM255.63 39.6596V40.7581H254.531V39.6596H255.63ZM255.63 27.5763V28.6748H254.531V27.5763H255.63ZM256.728 27.5763V28.6748H255.63V27.5763H256.728ZM256.728 28.6748V29.7732H255.63V28.6748H256.728ZM255.63 28.6748V29.7732H254.531V28.6748H255.63ZM255.63 29.7732V30.8717H254.531V29.7732H255.63ZM256.728 29.7732V30.8717H255.63V29.7732H256.728ZM256.728 30.8717V31.9702H255.63V30.8717H256.728ZM255.63 30.8717V31.9702H254.531V30.8717H255.63ZM255.63 31.9702V33.0687H254.531V31.9702H255.63ZM256.728 31.9702V33.0687H255.63V31.9702H256.728ZM255.63 53.9398V55.0383H254.531V53.9398H255.63ZM256.728 53.9398V55.0383H255.63V53.9398H256.728ZM256.728 52.8414V53.9398H255.63V52.8414H256.728ZM256.728 51.7429V52.8414H255.63V51.7429H256.728ZM256.728 50.6444V51.7429H255.63V50.6444H256.728ZM256.728 49.5459V50.6444H255.63V49.5459H256.728ZM255.63 49.5459V50.6444H254.531V49.5459H255.63ZM255.63 50.6444V51.7429H254.531V50.6444H255.63ZM255.63 51.7429V52.8414H254.531V51.7429H255.63ZM255.63 52.8414V53.9398H254.531V52.8414H255.63ZM257.827 38.5611V39.6596H256.728V38.5611H257.827ZM258.925 38.5611V39.6596H257.827V38.5611H258.925ZM260.024 38.5611V39.6596H258.925V38.5611H260.024ZM261.122 37.4626V38.5611H260.024V37.4626H261.122ZM262.221 36.3641V37.4626H261.122V36.3641H262.221ZM262.221 35.2657V36.3641H261.122V35.2657H262.221ZM262.221 34.1672V35.2657H261.122V34.1672H262.221ZM261.122 33.0687V34.1672H260.024V33.0687H261.122ZM260.024 31.9702V33.0687H258.925V31.9702H260.024ZM258.925 31.9702V33.0687H257.827V31.9702H258.925ZM257.827 31.9702V33.0687H256.728V31.9702H257.827ZM257.827 27.5763V28.6748H256.728V27.5763H257.827ZM258.925 27.5763V28.6748H257.827V27.5763H258.925ZM260.024 27.5763V28.6748H258.925V27.5763H260.024ZM261.122 27.5763V28.6748H260.024V27.5763H261.122ZM261.122 28.6748V29.7732H260.024V28.6748H261.122ZM261.122 29.7732V30.8717H260.024V29.7732H261.122ZM261.122 30.8717V31.9702H260.024V30.8717H261.122ZM260.024 30.8717V31.9702H258.925V30.8717H260.024ZM260.024 29.7732V30.8717H258.925V29.7732H260.024ZM258.925 29.7732V30.8717H257.827V29.7732H258.925ZM257.827 29.7732V30.8717H256.728V29.7732H257.827ZM257.827 28.6748V29.7732H256.728V28.6748H257.827ZM258.925 28.6748V29.7732H257.827V28.6748H258.925ZM260.024 28.6748V29.7732H258.925V28.6748H260.024ZM257.827 30.8717V31.9702H256.728V30.8717H257.827ZM258.925 30.8717V31.9702H257.827V30.8717H258.925ZM261.122 31.9702V33.0687H260.024V31.9702H261.122ZM262.221 33.0687V34.1672H261.122V33.0687H262.221ZM262.221 31.9702V33.0687H261.122V31.9702H262.221ZM262.221 30.8717V31.9702H261.122V30.8717H262.221ZM262.221 29.7732V30.8717H261.122V29.7732H262.221ZM262.221 28.6748V29.7732H261.122V28.6748H262.221ZM262.221 27.5763V28.6748H261.122V27.5763H262.221ZM262.221 37.4626V38.5611H261.122V37.4626H262.221ZM262.221 38.5611V39.6596H261.122V38.5611H262.221ZM262.221 39.6596V40.7581H261.122V39.6596H262.221ZM262.221 40.7581V41.8565H261.122V40.7581H262.221ZM261.122 40.7581V41.8565H260.024V40.7581H261.122ZM260.024 40.7581V41.8565H258.925V40.7581H260.024ZM258.925 40.7581V41.8565H257.827V40.7581H258.925ZM257.827 40.7581V41.8565H256.728V40.7581H257.827ZM257.827 39.6596V40.7581H256.728V39.6596H257.827ZM258.925 39.6596V40.7581H257.827V39.6596H258.925ZM260.024 39.6596V40.7581H258.925V39.6596H260.024ZM261.122 39.6596V40.7581H260.024V39.6596H261.122ZM261.122 38.5611V39.6596H260.024V38.5611H261.122ZM257.827 41.8565V42.955H256.728V41.8565H257.827ZM258.925 41.8565V42.955H257.827V41.8565H258.925ZM260.024 41.8565V42.955H258.925V41.8565H260.024ZM261.122 41.8565V42.955H260.024V41.8565H261.122ZM262.221 41.8565V42.955H261.122V41.8565H262.221ZM262.221 42.955V44.0535H261.122V42.955H262.221ZM261.122 42.955V44.0535H260.024V42.955H261.122ZM260.024 42.955V44.0535H258.925V42.955H260.024ZM258.925 42.955V44.0535H257.827V42.955H258.925ZM257.827 42.955V44.0535H256.728V42.955H257.827ZM261.122 44.0535V45.152H260.024V44.0535H261.122ZM262.221 45.152V46.2505H261.122V45.152H262.221ZM262.221 44.0535V45.152H261.122V44.0535H262.221ZM262.221 46.2505V47.3489H261.122V46.2505H262.221ZM262.221 47.3489V48.4474H261.122V47.3489H262.221ZM257.827 49.5459V50.6444H256.728V49.5459H257.827ZM258.925 49.5459V50.6444H257.827V49.5459H258.925ZM260.024 49.5459V50.6444H258.925V49.5459H260.024ZM261.122 48.4474V49.5459H260.024V48.4474H261.122ZM262.221 48.4474V49.5459H261.122V48.4474H262.221ZM262.221 49.5459V50.6444H261.122V49.5459H262.221ZM261.122 49.5459V50.6444H260.024V49.5459H261.122ZM262.221 50.6444V51.7429H261.122V50.6444H262.221ZM262.221 51.7429V52.8414H261.122V51.7429H262.221ZM262.221 52.8414V53.9398H261.122V52.8414H262.221ZM262.221 53.9398V55.0383H261.122V53.9398H262.221ZM261.122 53.9398V55.0383H260.024V53.9398H261.122ZM261.122 52.8414V53.9398H260.024V52.8414H261.122ZM260.024 52.8414V53.9398H258.925V52.8414H260.024ZM258.925 53.9398V55.0383H257.827V53.9398H258.925ZM257.827 53.9398V55.0383H256.728V53.9398H257.827ZM260.024 53.9398V55.0383H258.925V53.9398H260.024ZM258.925 52.8414V53.9398H257.827V52.8414H258.925ZM257.827 52.8414V53.9398H256.728V52.8414H257.827ZM257.827 51.7429V52.8414H256.728V51.7429H257.827ZM258.925 51.7429V52.8414H257.827V51.7429H258.925ZM260.024 51.7429V52.8414H258.925V51.7429H260.024ZM261.122 51.7429V52.8414H260.024V51.7429H261.122ZM261.122 50.6444V51.7429H260.024V50.6444H261.122ZM260.024 50.6444V51.7429H258.925V50.6444H260.024ZM258.925 50.6444V51.7429H257.827V50.6444H258.925ZM257.827 50.6444V51.7429H256.728V50.6444H257.827ZM263.319 28.6748V29.7732H262.221V28.6748H263.319ZM264.418 28.6748V29.7732H263.319V28.6748H264.418ZM264.418 29.7732V30.8717H263.319V29.7732H264.418ZM265.516 29.7732V30.8717H264.418V29.7732H265.516ZM265.516 30.8717V31.9702H264.418V30.8717H265.516ZM265.516 31.9702V33.0687H264.418V31.9702H265.516ZM266.615 31.9702V33.0687H265.516V31.9702H266.615ZM266.615 33.0687V34.1672H265.516V33.0687H266.615ZM266.615 34.1672V35.2657H265.516V34.1672H266.615ZM266.615 35.2657V36.3641H265.516V35.2657H266.615ZM266.615 36.3641V37.4626H265.516V36.3641H266.615ZM266.615 37.4626V38.5611H265.516V37.4626H266.615ZM266.615 38.5611V39.6596H265.516V38.5611H266.615ZM265.516 39.6596V40.7581H264.418V39.6596H265.516ZM264.418 40.7581V41.8565H263.319V40.7581H264.418ZM265.516 41.8565V42.955H264.418V41.8565H265.516ZM266.615 42.955V44.0535H265.516V42.955H266.615ZM263.319 52.8414V53.9398H262.221V52.8414H263.319ZM264.418 52.8414V53.9398H263.319V52.8414H264.418ZM265.516 51.7429V52.8414H264.418V51.7429H265.516ZM266.615 49.5459V50.6444H265.516V49.5459H266.615ZM264.418 51.7429V52.8414H263.319V51.7429H264.418ZM264.418 50.6444V51.7429H263.319V50.6444H264.418ZM265.516 50.6444V51.7429H264.418V50.6444H265.516ZM266.615 48.4474V49.5459H265.516V48.4474H266.615ZM266.615 47.3489V48.4474H265.516V47.3489H266.615ZM266.615 46.2505V47.3489H265.516V46.2505H266.615ZM266.615 45.152V46.2505H265.516V45.152H266.615ZM266.615 44.0535V45.152H265.516V44.0535H266.615ZM263.319 41.8565V42.955H262.221V41.8565H263.319ZM264.418 41.8565V42.955H263.319V41.8565H264.418ZM264.418 42.955V44.0535H263.319V42.955H264.418ZM263.319 42.955V44.0535H262.221V42.955H263.319ZM265.516 42.955V44.0535H264.418V42.955H265.516ZM265.516 44.0535V45.152H264.418V44.0535H265.516ZM265.516 45.152V46.2505H264.418V45.152H265.516ZM265.516 46.2505V47.3489H264.418V46.2505H265.516ZM265.516 47.3489V48.4474H264.418V47.3489H265.516ZM265.516 48.4474V49.5459H264.418V48.4474H265.516ZM265.516 49.5459V50.6444H264.418V49.5459H265.516ZM264.418 49.5459V50.6444H263.319V49.5459H264.418ZM264.418 48.4474V49.5459H263.319V48.4474H264.418ZM264.418 47.3489V48.4474H263.319V47.3489H264.418ZM264.418 46.2505V47.3489H263.319V46.2505H264.418ZM264.418 45.152V46.2505H263.319V45.152H264.418ZM264.418 44.0535V45.152H263.319V44.0535H264.418ZM263.319 44.0535V45.152H262.221V44.0535H263.319ZM263.319 45.152V46.2505H262.221V45.152H263.319ZM263.319 46.2505V47.3489H262.221V46.2505H263.319ZM263.319 47.3489V48.4474H262.221V47.3489H263.319ZM263.319 48.4474V49.5459H262.221V48.4474H263.319ZM263.319 49.5459V50.6444H262.221V49.5459H263.319ZM263.319 50.6444V51.7429H262.221V50.6444H263.319ZM263.319 51.7429V52.8414H262.221V51.7429H263.319ZM263.319 29.7732V30.8717H262.221V29.7732H263.319ZM263.319 30.8717V31.9702H262.221V30.8717H263.319ZM263.319 31.9702V33.0687H262.221V31.9702H263.319ZM263.319 33.0687V34.1672H262.221V33.0687H263.319ZM263.319 34.1672V35.2657H262.221V34.1672H263.319ZM263.319 35.2657V36.3641H262.221V35.2657H263.319ZM263.319 36.3641V37.4626H262.221V36.3641H263.319ZM263.319 37.4626V38.5611H262.221V37.4626H263.319ZM263.319 38.5611V39.6596H262.221V38.5611H263.319ZM263.319 39.6596V40.7581H262.221V39.6596H263.319ZM263.319 40.7581V41.8565H262.221V40.7581H263.319ZM264.418 39.6596V40.7581H263.319V39.6596H264.418ZM264.418 38.5611V39.6596H263.319V38.5611H264.418ZM264.418 37.4626V38.5611H263.319V37.4626H264.418ZM264.418 36.3641V37.4626H263.319V36.3641H264.418ZM264.418 35.2657V36.3641H263.319V35.2657H264.418ZM264.418 34.1672V35.2657H263.319V34.1672H264.418ZM264.418 33.0687V34.1672H263.319V33.0687H264.418ZM264.418 31.9702V33.0687H263.319V31.9702H264.418ZM264.418 30.8717V31.9702H263.319V30.8717H264.418ZM265.516 33.0687V34.1672H264.418V33.0687H265.516ZM265.516 34.1672V35.2657H264.418V34.1672H265.516ZM265.516 35.2657V36.3641H264.418V35.2657H265.516ZM265.516 36.3641V37.4626H264.418V36.3641H265.516ZM265.516 37.4626V38.5611H264.418V37.4626H265.516ZM265.516 38.5611V39.6596H264.418V38.5611H265.516ZM271.228 34.1672V35.2657H270.129V34.1672H271.228ZM272.326 34.1672V35.2657H271.228V34.1672H272.326ZM273.425 34.1672V35.2657H272.326V34.1672H273.425ZM274.523 34.1672V35.2657H273.425V34.1672H274.523ZM274.523 35.2657V36.3641H273.425V35.2657H274.523ZM275.622 35.2657V36.3641H274.523V35.2657H275.622ZM275.622 36.3641V37.4626H274.523V36.3641H275.622ZM275.622 34.1672V35.2657H274.523V34.1672H275.622ZM275.622 37.4626V38.5611H274.523V37.4626H275.622ZM275.622 38.5611V39.6596H274.523V38.5611H275.622ZM275.622 39.6596V40.7581H274.523V39.6596H275.622ZM275.622 40.7581V41.8565H274.523V40.7581H275.622ZM275.622 41.8565V42.955H274.523V41.8565H275.622ZM275.622 42.955V44.0535H274.523V42.955H275.622ZM275.622 44.0535V45.152H274.523V44.0535H275.622ZM275.622 45.152V46.2505H274.523V45.152H275.622ZM275.622 46.2505V47.3489H274.523V46.2505H275.622ZM274.523 46.2505V47.3489H273.425V46.2505H274.523ZM273.425 47.3489V48.4474H272.326V47.3489H273.425ZM272.326 47.3489V48.4474H271.228V47.3489H272.326ZM271.228 47.3489V48.4474H270.129V47.3489H271.228ZM271.228 46.2505V47.3489H270.129V46.2505H271.228ZM271.228 45.152V46.2505H270.129V45.152H271.228ZM271.228 44.0535V45.152H270.129V44.0535H271.228ZM271.228 42.955V44.0535H270.129V42.955H271.228ZM272.326 42.955V44.0535H271.228V42.955H272.326ZM272.326 41.8565V42.955H271.228V41.8565H272.326ZM272.326 40.7581V41.8565H271.228V40.7581H272.326ZM272.326 39.6596V40.7581H271.228V39.6596H272.326ZM272.326 38.5611V39.6596H271.228V38.5611H272.326ZM272.326 37.4626V38.5611H271.228V37.4626H272.326ZM272.326 36.3641V37.4626H271.228V36.3641H272.326ZM272.326 35.2657V36.3641H271.228V35.2657H272.326ZM271.228 35.2657V36.3641H270.129V35.2657H271.228ZM271.228 36.3641V37.4626H270.129V36.3641H271.228ZM271.228 37.4626V38.5611H270.129V37.4626H271.228ZM271.228 38.5611V39.6596H270.129V38.5611H271.228ZM271.228 39.6596V40.7581H270.129V39.6596H271.228ZM271.228 40.7581V41.8565H270.129V40.7581H271.228ZM271.228 41.8565V42.955H270.129V41.8565H271.228ZM273.425 39.6596V40.7581H272.326V39.6596H273.425ZM273.425 38.5611V39.6596H272.326V38.5611H273.425ZM273.425 37.4626V38.5611H272.326V37.4626H273.425ZM273.425 36.3641V37.4626H272.326V36.3641H273.425ZM273.425 35.2657V36.3641H272.326V35.2657H273.425ZM274.523 39.6596V40.7581H273.425V39.6596H274.523ZM274.523 40.7581V41.8565H273.425V40.7581H274.523ZM274.523 38.5611V39.6596H273.425V38.5611H274.523ZM274.523 37.4626V38.5611H273.425V37.4626H274.523ZM274.523 36.3641V37.4626H273.425V36.3641H274.523ZM273.425 42.955V44.0535H272.326V42.955H273.425ZM273.425 41.8565V42.955H272.326V41.8565H273.425ZM273.425 40.7581V41.8565H272.326V40.7581H273.425ZM274.523 41.8565V42.955H273.425V41.8565H274.523ZM274.523 42.955V44.0535H273.425V42.955H274.523ZM274.523 44.0535V45.152H273.425V44.0535H274.523ZM273.425 45.152V46.2505H272.326V45.152H273.425ZM273.425 46.2505V47.3489H272.326V46.2505H273.425ZM273.425 44.0535V45.152H272.326V44.0535H273.425ZM272.326 44.0535V45.152H271.228V44.0535H272.326ZM272.326 45.152V46.2505H271.228V45.152H272.326ZM272.326 46.2505V47.3489H271.228V46.2505H272.326ZM274.523 45.152V46.2505H273.425V45.152H274.523ZM273.425 48.4474V49.5459H272.326V48.4474H273.425ZM272.326 48.4474V49.5459H271.228V48.4474H272.326ZM274.523 48.4474V49.5459H273.425V48.4474H274.523ZM274.523 47.3489V48.4474H273.425V47.3489H274.523ZM275.622 47.3489V48.4474H274.523V47.3489H275.622ZM276.72 47.3489V48.4474H275.622V47.3489H276.72ZM276.72 48.4474V49.5459H275.622V48.4474H276.72ZM275.622 48.4474V49.5459H274.523V48.4474H275.622ZM277.819 48.4474V49.5459H276.72V48.4474H277.819ZM273.425 49.5459V50.6444H272.326V49.5459H273.425ZM274.523 49.5459V50.6444H273.425V49.5459H274.523ZM275.622 49.5459V50.6444H274.523V49.5459H275.622ZM276.72 49.5459V50.6444H275.622V49.5459H276.72ZM277.819 49.5459V50.6444H276.72V49.5459H277.819ZM278.917 49.5459V50.6444H277.819V49.5459H278.917ZM280.016 49.5459V50.6444H278.917V49.5459H280.016ZM281.114 49.5459V50.6444H280.016V49.5459H281.114ZM282.213 49.5459V50.6444H281.114V49.5459H282.213ZM283.311 49.5459V50.6444H282.213V49.5459H283.311ZM284.41 49.5459V50.6444H283.311V49.5459H284.41ZM285.508 49.5459V50.6444H284.41V49.5459H285.508ZM284.41 48.4474V49.5459H283.311V48.4474H284.41ZM283.311 48.4474V49.5459H282.213V48.4474H283.311ZM282.213 48.4474V49.5459H281.114V48.4474H282.213ZM281.114 48.4474V49.5459H280.016V48.4474H281.114ZM282.213 47.3489V48.4474H281.114V47.3489H282.213ZM283.311 47.3489V48.4474H282.213V47.3489H283.311ZM284.41 47.3489V48.4474H283.311V47.3489H284.41ZM285.508 47.3489V48.4474H284.41V47.3489H285.508ZM286.607 47.3489V48.4474H285.508V47.3489H286.607ZM286.607 48.4474V49.5459H285.508V48.4474H286.607ZM285.508 48.4474V49.5459H284.41V48.4474H285.508ZM287.705 47.3489V48.4474H286.607V47.3489H287.705ZM277.819 53.9398V55.0383H276.72V53.9398H277.819ZM277.819 52.8414V53.9398H276.72V52.8414H277.819ZM277.819 51.7429V52.8414H276.72V51.7429H277.819ZM278.917 51.7429V52.8414H277.819V51.7429H278.917ZM278.917 50.6444V51.7429H277.819V50.6444H278.917ZM280.016 50.6444V51.7429H278.917V50.6444H280.016ZM281.114 50.6444V51.7429H280.016V50.6444H281.114ZM281.114 51.7429V52.8414H280.016V51.7429H281.114ZM281.114 52.8414V53.9398H280.016V52.8414H281.114ZM281.114 53.9398V55.0383H280.016V53.9398H281.114ZM280.016 53.9398V55.0383H278.917V53.9398H280.016ZM278.917 53.9398V55.0383H277.819V53.9398H278.917ZM278.917 52.8414V53.9398H277.819V52.8414H278.917ZM280.016 51.7429V52.8414H278.917V51.7429H280.016ZM280.016 52.8414V53.9398H278.917V52.8414H280.016ZM282.213 51.7429V52.8414H281.114V51.7429H282.213ZM282.213 50.6444V51.7429H281.114V50.6444H282.213ZM283.311 50.6444V51.7429H282.213V50.6444H283.311ZM284.41 50.6444V51.7429H283.311V50.6444H284.41ZM283.311 51.7429V52.8414H282.213V51.7429H283.311ZM282.213 52.8414V53.9398H281.114V52.8414H282.213ZM274.523 50.6444V51.7429H273.425V50.6444H274.523ZM275.622 50.6444V51.7429H274.523V50.6444H275.622ZM275.622 51.7429V52.8414H274.523V51.7429H275.622ZM276.72 51.7429V52.8414H275.622V51.7429H276.72ZM276.72 52.8414V53.9398H275.622V52.8414H276.72ZM277.819 50.6444V51.7429H276.72V50.6444H277.819ZM276.72 50.6444V51.7429H275.622V50.6444H276.72ZM283.311 46.2505V47.3489H282.213V46.2505H283.311ZM283.311 45.152V46.2505H282.213V45.152H283.311ZM283.311 44.0535V45.152H282.213V44.0535H283.311ZM283.311 42.955V44.0535H282.213V42.955H283.311ZM284.41 42.955V44.0535H283.311V42.955H284.41ZM285.508 42.955V44.0535H284.41V42.955H285.508ZM286.607 42.955V44.0535H285.508V42.955H286.607ZM287.705 42.955V44.0535H286.607V42.955H287.705ZM287.705 44.0535V45.152H286.607V44.0535H287.705ZM287.705 45.152V46.2505H286.607V45.152H287.705ZM287.705 46.2505V47.3489H286.607V46.2505H287.705ZM286.607 46.2505V47.3489H285.508V46.2505H286.607ZM285.508 46.2505V47.3489H284.41V46.2505H285.508ZM284.41 46.2505V47.3489H283.311V46.2505H284.41ZM285.508 45.152V46.2505H284.41V45.152H285.508ZM286.607 45.152V46.2505H285.508V45.152H286.607ZM286.607 44.0535V45.152H285.508V44.0535H286.607ZM285.508 44.0535V45.152H284.41V44.0535H285.508ZM284.41 44.0535V45.152H283.311V44.0535H284.41ZM284.41 45.152V46.2505H283.311V45.152H284.41ZM283.311 41.8565V42.955H282.213V41.8565H283.311ZM283.311 40.7581V41.8565H282.213V40.7581H283.311ZM283.311 39.6596V40.7581H282.213V39.6596H283.311ZM283.311 38.5611V39.6596H282.213V38.5611H283.311ZM283.311 37.4626V38.5611H282.213V37.4626H283.311ZM283.311 36.3641V37.4626H282.213V36.3641H283.311ZM283.311 35.2657V36.3641H282.213V35.2657H283.311ZM283.311 34.1672V35.2657H282.213V34.1672H283.311ZM284.41 35.2657V36.3641H283.311V35.2657H284.41ZM284.41 34.1672V35.2657H283.311V34.1672H284.41ZM285.508 34.1672V35.2657H284.41V34.1672H285.508ZM286.607 34.1672V35.2657H285.508V34.1672H286.607ZM286.607 35.2657V36.3641H285.508V35.2657H286.607ZM286.607 36.3641V37.4626H285.508V36.3641H286.607ZM287.705 36.3641V37.4626H286.607V36.3641H287.705ZM287.705 37.4626V38.5611H286.607V37.4626H287.705ZM287.705 38.5611V39.6596H286.607V38.5611H287.705ZM287.705 39.6596V40.7581H286.607V39.6596H287.705ZM287.705 40.7581V41.8565H286.607V40.7581H287.705ZM287.705 41.8565V42.955H286.607V41.8565H287.705ZM287.705 35.2657V36.3641H286.607V35.2657H287.705ZM287.705 34.1672V35.2657H286.607V34.1672H287.705ZM285.508 35.2657V36.3641H284.41V35.2657H285.508ZM285.508 36.3641V37.4626H284.41V36.3641H285.508ZM285.508 37.4626V38.5611H284.41V37.4626H285.508ZM285.508 38.5611V39.6596H284.41V38.5611H285.508ZM285.508 39.6596V40.7581H284.41V39.6596H285.508ZM285.508 40.7581V41.8565H284.41V40.7581H285.508ZM284.41 40.7581V41.8565H283.311V40.7581H284.41ZM284.41 41.8565V42.955H283.311V41.8565H284.41ZM284.41 39.6596V40.7581H283.311V39.6596H284.41ZM284.41 38.5611V39.6596H283.311V38.5611H284.41ZM284.41 37.4626V38.5611H283.311V37.4626H284.41ZM284.41 36.3641V37.4626H283.311V36.3641H284.41ZM286.607 37.4626V38.5611H285.508V37.4626H286.607ZM286.607 38.5611V39.6596H285.508V38.5611H286.607ZM286.607 39.6596V40.7581H285.508V39.6596H286.607ZM286.607 40.7581V41.8565H285.508V40.7581H286.607ZM286.607 41.8565V42.955H285.508V41.8565H286.607ZM285.508 41.8565V42.955H284.41V41.8565H285.508ZM275.622 53.9398V55.0383H274.523V53.9398H275.622ZM276.72 53.9398V55.0383H275.622V53.9398H276.72ZM277.819 55.0383V56.1368H276.72V55.0383H277.819ZM278.917 55.0383V56.1368H277.819V55.0383H278.917ZM280.016 55.0383V56.1368H278.917V55.0383H280.016ZM276.72 55.0383V56.1368H275.622V55.0383H276.72ZM275.622 55.0383V56.1368H274.523V55.0383H275.622ZM274.523 55.0383V56.1368H273.425V55.0383H274.523ZM274.523 56.1368V57.2353H273.425V56.1368H274.523ZM273.425 56.1368V57.2353H272.326V56.1368H273.425ZM273.425 57.2353V58.3338H272.326V57.2353H273.425ZM272.326 57.2353V58.3338H271.228V57.2353H272.326ZM272.326 58.3338V59.4322H271.228V58.3338H272.326ZM272.326 59.4322V60.5307H271.228V59.4322H272.326ZM272.326 60.5307V61.6292H271.228V60.5307H272.326ZM273.425 60.5307V61.6292H272.326V60.5307H273.425ZM274.523 60.5307V61.6292H273.425V60.5307H274.523ZM274.523 59.4322V60.5307H273.425V59.4322H274.523ZM274.523 58.3338V59.4322H273.425V58.3338H274.523ZM273.425 58.3338V59.4322H272.326V58.3338H273.425ZM273.425 59.4322V60.5307H272.326V59.4322H273.425ZM275.622 58.3338V59.4322H274.523V58.3338H275.622ZM275.622 59.4322V60.5307H274.523V59.4322H275.622ZM276.72 58.3338V59.4322H275.622V58.3338H276.72ZM276.72 57.2353V58.3338H275.622V57.2353H276.72ZM277.819 57.2353V58.3338H276.72V57.2353H277.819ZM277.819 56.1368V57.2353H276.72V56.1368H277.819ZM278.917 56.1368V57.2353H277.819V56.1368H278.917ZM276.72 56.1368V57.2353H275.622V56.1368H276.72ZM275.622 56.1368V57.2353H274.523V56.1368H275.622ZM275.622 57.2353V58.3338H274.523V57.2353H275.622ZM274.523 57.2353V58.3338H273.425V57.2353H274.523ZM296.712 29.7732V30.8717H295.614V29.7732H296.712ZM296.712 30.8717V31.9702H295.614V30.8717H296.712ZM296.712 31.9702V33.0687H295.614V31.9702H296.712ZM296.712 33.0687V34.1672H295.614V33.0687H296.712ZM296.712 34.1672V35.2657H295.614V34.1672H296.712ZM296.712 35.2657V36.3641H295.614V35.2657H296.712ZM296.712 36.3641V37.4626H295.614V36.3641H296.712ZM296.712 37.4626V38.5611H295.614V37.4626H296.712ZM297.811 37.4626V38.5611H296.712V37.4626H297.811ZM298.909 37.4626V38.5611H297.811V37.4626H298.909ZM300.008 37.4626V38.5611H298.909V37.4626H300.008ZM301.106 37.4626V38.5611H300.008V37.4626H301.106ZM296.712 39.6596V40.7581H295.614V39.6596H296.712ZM295.614 39.6596V40.7581H294.515V39.6596H295.614ZM295.614 38.5611V39.6596H294.515V38.5611H295.614ZM296.712 38.5611V39.6596H295.614V38.5611H296.712ZM296.712 40.7581V41.8565H295.614V40.7581H296.712ZM295.614 40.7581V41.8565H294.515V40.7581H295.614ZM294.515 40.7581V41.8565H293.417V40.7581H294.515ZM293.417 40.7581V41.8565H292.318V40.7581H293.417ZM292.318 40.7581V41.8565H291.22V40.7581H292.318ZM290.121 37.4626V38.5611H289.023V37.4626H290.121ZM291.22 37.4626V38.5611H290.121V37.4626H291.22ZM292.318 37.4626V38.5611H291.22V37.4626H292.318ZM293.417 37.4626V38.5611H292.318V37.4626H293.417ZM294.515 37.4626V38.5611H293.417V37.4626H294.515ZM295.614 37.4626V38.5611H294.515V37.4626H295.614ZM294.515 39.6596V40.7581H293.417V39.6596H294.515ZM294.515 38.5611V39.6596H293.417V38.5611H294.515ZM293.417 38.5611V39.6596H292.318V38.5611H293.417ZM292.318 38.5611V39.6596H291.22V38.5611H292.318ZM292.318 39.6596V40.7581H291.22V39.6596H292.318ZM293.417 39.6596V40.7581H292.318V39.6596H293.417ZM295.614 30.8717V31.9702H294.515V30.8717H295.614ZM295.614 31.9702V33.0687H294.515V31.9702H295.614ZM294.515 31.9702V33.0687H293.417V31.9702H294.515ZM294.515 33.0687V34.1672H293.417V33.0687H294.515ZM294.515 34.1672V35.2657H293.417V34.1672H294.515ZM293.417 33.0687V34.1672H292.318V33.0687H293.417ZM293.417 34.1672V35.2657H292.318V34.1672H293.417ZM292.318 34.1672V35.2657H291.22V34.1672H292.318ZM292.318 35.2657V36.3641H291.22V35.2657H292.318ZM292.318 36.3641V37.4626H291.22V36.3641H292.318ZM294.515 36.3641V37.4626H293.417V36.3641H294.515ZM295.614 36.3641V37.4626H294.515V36.3641H295.614ZM295.614 35.2657V36.3641H294.515V35.2657H295.614ZM295.614 34.1672V35.2657H294.515V34.1672H295.614ZM295.614 33.0687V34.1672H294.515V33.0687H295.614ZM294.515 35.2657V36.3641H293.417V35.2657H294.515ZM293.417 36.3641V37.4626H292.318V36.3641H293.417ZM293.417 35.2657V36.3641H292.318V35.2657H293.417ZM301.106 50.6444V51.7429H300.008V50.6444H301.106ZM301.106 51.7429V52.8414H300.008V51.7429H301.106ZM301.106 53.9398V55.0383H300.008V53.9398H301.106ZM300.008 53.9398V55.0383H298.909V53.9398H300.008ZM298.909 53.9398V55.0383H297.811V53.9398H298.909ZM297.811 53.9398V55.0383H296.712V53.9398H297.811ZM296.712 53.9398V55.0383H295.614V53.9398H296.712ZM296.712 52.8414V53.9398H295.614V52.8414H296.712ZM295.614 52.8414V53.9398H294.515V52.8414H295.614ZM294.515 52.8414V53.9398H293.417V52.8414H294.515ZM294.515 51.7429V52.8414H293.417V51.7429H294.515ZM293.417 51.7429V52.8414H292.318V51.7429H293.417ZM293.417 50.6444V51.7429H292.318V50.6444H293.417ZM293.417 49.5459V50.6444H292.318V49.5459H293.417ZM292.318 49.5459V50.6444H291.22V49.5459H292.318ZM292.318 48.4474V49.5459H291.22V48.4474H292.318ZM292.318 47.3489V48.4474H291.22V47.3489H292.318ZM292.318 46.2505V47.3489H291.22V46.2505H292.318ZM292.318 45.152V46.2505H291.22V45.152H292.318ZM292.318 44.0535V45.152H291.22V44.0535H292.318ZM292.318 42.955V44.0535H291.22V42.955H292.318ZM292.318 41.8565V42.955H291.22V41.8565H292.318ZM293.417 41.8565V42.955H292.318V41.8565H293.417ZM294.515 41.8565V42.955H293.417V41.8565H294.515ZM295.614 41.8565V42.955H294.515V41.8565H295.614ZM296.712 41.8565V42.955H295.614V41.8565H296.712ZM296.712 42.955V44.0535H295.614V42.955H296.712ZM296.712 44.0535V45.152H295.614V44.0535H296.712ZM296.712 45.152V46.2505H295.614V45.152H296.712ZM296.712 46.2505V47.3489H295.614V46.2505H296.712ZM296.712 47.3489V48.4474H295.614V47.3489H296.712ZM296.712 48.4474V49.5459H295.614V48.4474H296.712ZM296.712 49.5459V50.6444H295.614V49.5459H296.712ZM297.811 49.5459V50.6444H296.712V49.5459H297.811ZM297.811 50.6444V51.7429H296.712V50.6444H297.811ZM298.909 50.6444V51.7429H297.811V50.6444H298.909ZM298.909 51.7429V52.8414H297.811V51.7429H298.909ZM300.008 51.7429V52.8414H298.909V51.7429H300.008ZM300.008 50.6444V51.7429H298.909V50.6444H300.008ZM301.106 52.8414V53.9398H300.008V52.8414H301.106ZM300.008 52.8414V53.9398H298.909V52.8414H300.008ZM298.909 52.8414V53.9398H297.811V52.8414H298.909ZM297.811 52.8414V53.9398H296.712V52.8414H297.811ZM297.811 51.7429V52.8414H296.712V51.7429H297.811ZM296.712 51.7429V52.8414H295.614V51.7429H296.712ZM296.712 50.6444V51.7429H295.614V50.6444H296.712ZM295.614 50.6444V51.7429H294.515V50.6444H295.614ZM295.614 51.7429V52.8414H294.515V51.7429H295.614ZM294.515 50.6444V51.7429H293.417V50.6444H294.515ZM295.614 49.5459V50.6444H294.515V49.5459H295.614ZM295.614 48.4474V49.5459H294.515V48.4474H295.614ZM294.515 49.5459V50.6444H293.417V49.5459H294.515ZM294.515 48.4474V49.5459H293.417V48.4474H294.515ZM295.614 47.3489V48.4474H294.515V47.3489H295.614ZM295.614 46.2505V47.3489H294.515V46.2505H295.614ZM295.614 45.152V46.2505H294.515V45.152H295.614ZM295.614 44.0535V45.152H294.515V44.0535H295.614ZM295.614 42.955V44.0535H294.515V42.955H295.614ZM294.515 42.955V44.0535H293.417V42.955H294.515ZM293.417 42.955V44.0535H292.318V42.955H293.417ZM293.417 44.0535V45.152H292.318V44.0535H293.417ZM293.417 45.152V46.2505H292.318V45.152H293.417ZM293.417 46.2505V47.3489H292.318V46.2505H293.417ZM293.417 47.3489V48.4474H292.318V47.3489H293.417ZM293.417 48.4474V49.5459H292.318V48.4474H293.417ZM294.515 47.3489V48.4474H293.417V47.3489H294.515ZM294.515 46.2505V47.3489H293.417V46.2505H294.515ZM294.515 45.152V46.2505H293.417V45.152H294.515ZM294.515 44.0535V45.152H293.417V44.0535H294.515ZM301.106 35.2657V36.3641H300.008V35.2657H301.106ZM300.008 35.2657V36.3641H298.909V35.2657H300.008ZM300.008 36.3641V37.4626H298.909V36.3641H300.008ZM301.106 36.3641V37.4626H300.008V36.3641H301.106ZM298.909 36.3641V37.4626H297.811V36.3641H298.909ZM297.811 36.3641V37.4626H296.712V36.3641H297.811ZM297.811 35.2657V36.3641H296.712V35.2657H297.811ZM298.909 35.2657V36.3641H297.811V35.2657H298.909ZM292.318 33.0687V34.1672H291.22V33.0687H292.318ZM293.417 31.9702V33.0687H292.318V31.9702H293.417ZM294.515 30.8717V31.9702H293.417V30.8717H294.515ZM295.614 29.7732V30.8717H294.515V29.7732H295.614ZM291.22 35.2657V36.3641H290.121V35.2657H291.22ZM291.22 36.3641V37.4626H290.121V36.3641H291.22ZM290.121 36.3641V37.4626H289.023V36.3641H290.121ZM290.121 35.2657V36.3641H289.023V35.2657H290.121ZM296.712 28.6748V29.7732H295.614V28.6748H296.712ZM290.121 38.5611V39.6596H289.023V38.5611H290.121ZM291.22 38.5611V39.6596H290.121V38.5611H291.22ZM297.811 38.5611V39.6596H296.712V38.5611H297.811ZM298.909 38.5611V39.6596H297.811V38.5611H298.909ZM300.008 38.5611V39.6596H298.909V38.5611H300.008ZM301.106 38.5611V39.6596H300.008V38.5611H301.106ZM315.597 40.7581V41.8565H314.498V40.7581H315.597ZM316.695 40.7581V41.8565H315.597V40.7581H316.695ZM317.794 40.7581V41.8565H316.695V40.7581H317.794ZM318.892 40.7581V41.8565H317.794V40.7581H318.892ZM319.991 40.7581V41.8565H318.892V40.7581H319.991ZM319.991 39.6596V40.7581H318.892V39.6596H319.991ZM319.991 38.5611V39.6596H318.892V38.5611H319.991ZM318.892 38.5611V39.6596H317.794V38.5611H318.892ZM317.794 38.5611V39.6596H316.695V38.5611H317.794ZM316.695 38.5611V39.6596H315.597V38.5611H316.695ZM316.695 39.6596V40.7581H315.597V39.6596H316.695ZM315.597 39.6596V40.7581H314.498V39.6596H315.597ZM317.794 39.6596V40.7581H316.695V39.6596H317.794ZM318.892 39.6596V40.7581H317.794V39.6596H318.892ZM315.597 38.5611V39.6596H314.498V38.5611H315.597ZM314.498 38.5611V39.6596H313.4V38.5611H314.498ZM314.498 37.4626V38.5611H313.4V37.4626H314.498ZM315.597 37.4626V38.5611H314.498V37.4626H315.597ZM316.695 37.4626V38.5611H315.597V37.4626H316.695ZM317.794 37.4626V38.5611H316.695V37.4626H317.794ZM318.892 37.4626V38.5611H317.794V37.4626H318.892ZM318.892 36.3641V37.4626H317.794V36.3641H318.892ZM317.794 36.3641V37.4626H316.695V36.3641H317.794ZM316.695 36.3641V37.4626H315.597V36.3641H316.695ZM315.597 36.3641V37.4626H314.498V36.3641H315.597ZM314.498 36.3641V37.4626H313.4V36.3641H314.498ZM316.695 35.2657V36.3641H315.597V35.2657H316.695ZM317.794 35.2657V36.3641H316.695V35.2657H317.794ZM315.597 35.2657V36.3641H314.498V35.2657H315.597ZM315.597 34.1672V35.2657H314.498V34.1672H315.597ZM314.498 34.1672V35.2657H313.4V34.1672H314.498ZM314.498 35.2657V36.3641H313.4V35.2657H314.498ZM313.4 35.2657V36.3641H312.301V35.2657H313.4ZM313.4 34.1672V35.2657H312.301V34.1672H313.4ZM313.4 36.3641V37.4626H312.301V36.3641H313.4ZM312.301 36.3641V37.4626H311.203V36.3641H312.301ZM312.301 37.4626V38.5611H311.203V37.4626H312.301ZM313.4 37.4626V38.5611H312.301V37.4626H313.4ZM311.203 37.4626V38.5611H310.104V37.4626H311.203ZM311.203 36.3641V37.4626H310.104V36.3641H311.203ZM311.203 35.2657V36.3641H310.104V35.2657H311.203ZM311.203 34.1672V35.2657H310.104V34.1672H311.203ZM312.301 34.1672V35.2657H311.203V34.1672H312.301ZM312.301 35.2657V36.3641H311.203V35.2657H312.301ZM310.104 34.1672V35.2657H309.006V34.1672H310.104ZM309.006 34.1672V35.2657H307.907V34.1672H309.006ZM307.907 34.1672V35.2657H306.809V34.1672H307.907ZM307.907 35.2657V36.3641H306.809V35.2657H307.907ZM307.907 36.3641V37.4626H306.809V36.3641H307.907ZM307.907 37.4626V38.5611H306.809V37.4626H307.907ZM309.006 37.4626V38.5611H307.907V37.4626H309.006ZM310.104 37.4626V38.5611H309.006V37.4626H310.104ZM310.104 36.3641V37.4626H309.006V36.3641H310.104ZM310.104 35.2657V36.3641H309.006V35.2657H310.104ZM309.006 35.2657V36.3641H307.907V35.2657H309.006ZM309.006 36.3641V37.4626H307.907V36.3641H309.006ZM306.809 36.3641V37.4626H305.711V36.3641H306.809ZM306.809 35.2657V36.3641H305.711V35.2657H306.809ZM305.711 35.2657V36.3641H304.612V35.2657H305.711ZM305.711 36.3641V37.4626H304.612V36.3641H305.711ZM304.612 36.3641V37.4626H303.514V36.3641H304.612ZM304.612 37.4626V38.5611H303.514V37.4626H304.612ZM304.612 38.5611V39.6596H303.514V38.5611H304.612ZM305.711 38.5611V39.6596H304.612V38.5611H305.711ZM305.711 37.4626V38.5611H304.612V37.4626H305.711ZM306.809 37.4626V38.5611H305.711V37.4626H306.809ZM306.809 38.5611V39.6596H305.711V38.5611H306.809ZM307.907 38.5611V39.6596H306.809V38.5611H307.907ZM309.006 38.5611V39.6596H307.907V38.5611H309.006ZM303.514 38.5611V39.6596H302.415V38.5611H303.514ZM303.514 39.6596V40.7581H302.415V39.6596H303.514ZM303.514 40.7581V41.8565H302.415V40.7581H303.514ZM303.514 41.8565V42.955H302.415V41.8565H303.514ZM303.514 42.955V44.0535H302.415V42.955H303.514ZM303.514 44.0535V45.152H302.415V44.0535H303.514ZM303.514 45.152V46.2505H302.415V45.152H303.514ZM303.514 46.2505V47.3489H302.415V46.2505H303.514ZM303.514 47.3489V48.4474H302.415V47.3489H303.514ZM303.514 48.4474V49.5459H302.415V48.4474H303.514ZM304.612 48.4474V49.5459H303.514V48.4474H304.612ZM304.612 49.5459V50.6444H303.514V49.5459H304.612ZM303.514 49.5459V50.6444H302.415V49.5459H303.514ZM305.711 49.5459V50.6444H304.612V49.5459H305.711ZM306.809 49.5459V50.6444H305.711V49.5459H306.809ZM307.907 49.5459V50.6444H306.809V49.5459H307.907ZM309.006 49.5459V50.6444H307.907V49.5459H309.006ZM307.907 48.4474V49.5459H306.809V48.4474H307.907ZM307.907 47.3489V48.4474H306.809V47.3489H307.907ZM307.907 46.2505V47.3489H306.809V46.2505H307.907ZM307.907 45.152V46.2505H306.809V45.152H307.907ZM307.907 44.0535V45.152H306.809V44.0535H307.907ZM307.907 42.955V44.0535H306.809V42.955H307.907ZM307.907 41.8565V42.955H306.809V41.8565H307.907ZM307.907 40.7581V41.8565H306.809V40.7581H307.907ZM307.907 39.6596V40.7581H306.809V39.6596H307.907ZM306.809 39.6596V40.7581H305.711V39.6596H306.809ZM305.711 39.6596V40.7581H304.612V39.6596H305.711ZM304.612 39.6596V40.7581H303.514V39.6596H304.612ZM304.612 40.7581V41.8565H303.514V40.7581H304.612ZM304.612 41.8565V42.955H303.514V41.8565H304.612ZM304.612 42.955V44.0535H303.514V42.955H304.612ZM304.612 44.0535V45.152H303.514V44.0535H304.612ZM304.612 45.152V46.2505H303.514V45.152H304.612ZM304.612 46.2505V47.3489H303.514V46.2505H304.612ZM304.612 47.3489V48.4474H303.514V47.3489H304.612ZM305.711 48.4474V49.5459H304.612V48.4474H305.711ZM306.809 48.4474V49.5459H305.711V48.4474H306.809ZM306.809 47.3489V48.4474H305.711V47.3489H306.809ZM306.809 46.2505V47.3489H305.711V46.2505H306.809ZM306.809 45.152V46.2505H305.711V45.152H306.809ZM306.809 44.0535V45.152H305.711V44.0535H306.809ZM305.711 44.0535V45.152H304.612V44.0535H305.711ZM305.711 42.955V44.0535H304.612V42.955H305.711ZM305.711 41.8565V42.955H304.612V41.8565H305.711ZM305.711 40.7581V41.8565H304.612V40.7581H305.711ZM306.809 40.7581V41.8565H305.711V40.7581H306.809ZM306.809 41.8565V42.955H305.711V41.8565H306.809ZM306.809 42.955V44.0535H305.711V42.955H306.809ZM305.711 46.2505V47.3489H304.612V46.2505H305.711ZM305.711 47.3489V48.4474H304.612V47.3489H305.711ZM305.711 45.152V46.2505H304.612V45.152H305.711ZM315.597 48.4474V49.5459H314.498V48.4474H315.597ZM316.695 48.4474V49.5459H315.597V48.4474H316.695ZM317.794 48.4474V49.5459H316.695V48.4474H317.794ZM318.892 48.4474V49.5459H317.794V48.4474H318.892ZM319.991 48.4474V49.5459H318.892V48.4474H319.991ZM319.991 49.5459V50.6444H318.892V49.5459H319.991ZM318.892 49.5459V50.6444H317.794V49.5459H318.892ZM317.794 49.5459V50.6444H316.695V49.5459H317.794ZM316.695 49.5459V50.6444H315.597V49.5459H316.695ZM315.597 49.5459V50.6444H314.498V49.5459H315.597ZM314.498 49.5459V50.6444H313.4V49.5459H314.498ZM314.498 50.6444V51.7429H313.4V50.6444H314.498ZM315.597 50.6444V51.7429H314.498V50.6444H315.597ZM316.695 50.6444V51.7429H315.597V50.6444H316.695ZM317.794 50.6444V51.7429H316.695V50.6444H317.794ZM317.794 51.7429V52.8414H316.695V51.7429H317.794ZM318.892 51.7429V52.8414H317.794V51.7429H318.892ZM318.892 50.6444V51.7429H317.794V50.6444H318.892ZM317.794 52.8414V53.9398H316.695V52.8414H317.794ZM316.695 52.8414V53.9398H315.597V52.8414H316.695ZM316.695 51.7429V52.8414H315.597V51.7429H316.695ZM315.597 51.7429V52.8414H314.498V51.7429H315.597ZM315.597 52.8414V53.9398H314.498V52.8414H315.597ZM315.597 53.9398V55.0383H314.498V53.9398H315.597ZM314.498 53.9398V55.0383H313.4V53.9398H314.498ZM313.4 53.9398V55.0383H312.301V53.9398H313.4ZM312.301 53.9398V55.0383H311.203V53.9398H312.301ZM311.203 53.9398V55.0383H310.104V53.9398H311.203ZM310.104 53.9398V55.0383H309.006V53.9398H310.104ZM309.006 53.9398V55.0383H307.907V53.9398H309.006ZM307.907 53.9398V55.0383H306.809V53.9398H307.907ZM309.006 52.8414V53.9398H307.907V52.8414H309.006ZM310.104 52.8414V53.9398H309.006V52.8414H310.104ZM311.203 52.8414V53.9398H310.104V52.8414H311.203ZM312.301 52.8414V53.9398H311.203V52.8414H312.301ZM313.4 52.8414V53.9398H312.301V52.8414H313.4ZM314.498 52.8414V53.9398H313.4V52.8414H314.498ZM314.498 51.7429V52.8414H313.4V51.7429H314.498ZM313.4 51.7429V52.8414H312.301V51.7429H313.4ZM312.301 51.7429V52.8414H311.203V51.7429H312.301ZM311.203 51.7429V52.8414H310.104V51.7429H311.203ZM310.104 51.7429V52.8414H309.006V51.7429H310.104ZM309.006 51.7429V52.8414H307.907V51.7429H309.006ZM307.907 52.8414V53.9398H306.809V52.8414H307.907ZM306.809 52.8414V53.9398H305.711V52.8414H306.809ZM305.711 52.8414V53.9398H304.612V52.8414H305.711ZM305.711 51.7429V52.8414H304.612V51.7429H305.711ZM304.612 51.7429V52.8414H303.514V51.7429H304.612ZM304.612 50.6444V51.7429H303.514V50.6444H304.612ZM305.711 50.6444V51.7429H304.612V50.6444H305.711ZM306.809 50.6444V51.7429H305.711V50.6444H306.809ZM307.907 50.6444V51.7429H306.809V50.6444H307.907ZM309.006 50.6444V51.7429H307.907V50.6444H309.006ZM310.104 50.6444V51.7429H309.006V50.6444H310.104ZM311.203 50.6444V51.7429H310.104V50.6444H311.203ZM312.301 50.6444V51.7429H311.203V50.6444H312.301ZM313.4 50.6444V51.7429H312.301V50.6444H313.4ZM307.907 51.7429V52.8414H306.809V51.7429H307.907ZM306.809 51.7429V52.8414H305.711V51.7429H306.809ZM319.991 41.8565V42.955H318.892V41.8565H319.991ZM318.892 41.8565V42.955H317.794V41.8565H318.892ZM317.794 41.8565V42.955H316.695V41.8565H317.794ZM316.695 41.8565V42.955H315.597V41.8565H316.695ZM315.597 41.8565V42.955H314.498V41.8565H315.597ZM319.991 42.955V44.0535H318.892V42.955H319.991ZM317.794 42.955V44.0535H316.695V42.955H317.794ZM316.695 42.955V44.0535H315.597V42.955H316.695ZM314.498 42.955V44.0535H313.4V42.955H314.498ZM313.4 42.955V44.0535H312.301V42.955H313.4ZM312.301 42.955V44.0535H311.203V42.955H312.301ZM311.203 42.955V44.0535H310.104V42.955H311.203ZM310.104 42.955V44.0535H309.006V42.955H310.104ZM309.006 42.955V44.0535H307.907V42.955H309.006ZM315.597 42.955V44.0535H314.498V42.955H315.597ZM318.892 42.955V44.0535H317.794V42.955H318.892ZM319.991 44.0535V45.152H318.892V44.0535H319.991ZM318.892 44.0535V45.152H317.794V44.0535H318.892ZM317.794 44.0535V45.152H316.695V44.0535H317.794ZM316.695 44.0535V45.152H315.597V44.0535H316.695ZM315.597 44.0535V45.152H314.498V44.0535H315.597ZM314.498 44.0535V45.152H313.4V44.0535H314.498ZM313.4 44.0535V45.152H312.301V44.0535H313.4ZM312.301 44.0535V45.152H311.203V44.0535H312.301ZM311.203 44.0535V45.152H310.104V44.0535H311.203ZM310.104 44.0535V45.152H309.006V44.0535H310.104ZM309.006 44.0535V45.152H307.907V44.0535H309.006ZM309.006 45.152V46.2505H307.907V45.152H309.006ZM310.104 45.152V46.2505H309.006V45.152H310.104ZM311.203 45.152V46.2505H310.104V45.152H311.203ZM313.4 45.152V46.2505H312.301V45.152H313.4ZM314.498 45.152V46.2505H313.4V45.152H314.498ZM315.597 45.152V46.2505H314.498V45.152H315.597ZM316.695 45.152V46.2505H315.597V45.152H316.695ZM317.794 45.152V46.2505H316.695V45.152H317.794ZM318.892 45.152V46.2505H317.794V45.152H318.892ZM319.991 45.152V46.2505H318.892V45.152H319.991ZM312.301 45.152V46.2505H311.203V45.152H312.301Z" fill="black"/>
<path d="M44.8321 10.2328V33.9948L71.7651 18.2098C71.5171 18.0288 71.2621 17.8568 70.9921 17.7008L42.4121 1.20081C39.7321 -0.349185 36.4321 -0.349185 33.7521 1.20081L5.17211 17.7008C2.49211 19.2508 0.842094 22.1108 0.842094 25.2008L0.842094 35.1448L44.8321 10.2328Z" fill="black"/>
<path d="M26.8321 65.4058V41.1088L0.842094 55.8268L0.842094 58.2008C0.842094 61.2908 2.49211 64.1508 5.17211 65.7008L33.7521 82.2008C36.4321 83.7508 39.7321 83.7508 42.4121 82.2008L70.9921 65.7008C73.6721 64.1508 75.3221 61.2908 75.3221 58.2008V36.9928L26.8321 65.4058Z" fill="black"/>
<path d="M39.8323 42.7208L75.1721 21.9171V31.1915L31.8323 56.6808L31.8323 32.5304L0.842033 50.0812L0.842033 40.8907L39.8323 18.8107V42.7208Z" fill="#8E2DE2"/>
</svg>
